<?xml version="1.0" standalone="no"?>
<!DOCTYPE svg PUBLIC "-//W3C//DTD SVG 20010904//EN"
 "http://www.w3.org/TR/2001/REC-SVG-20010904/DTD/svg10.dtd">
<svg version="1.0" xmlns="http://www.w3.org/2000/svg"
 width="101.000000pt" height="101.000000pt" viewBox="0 0 101.000000 101.000000"
 preserveAspectRatio="xMidYMid meet">
<metadata>
Created by potrace 1.11, written by Peter Selinger 2001-2013
</metadata>
<g transform="translate(0.000000,101.000000) scale(0.100000,-0.100000)"
fill="#000000" stroke="none">
<path d="M700 987 c-3 -3 -32 -8 -65 -12 -56 -6 -64 -10 -115 -61 -31 -30 -60
-54 -66 -54 -5 0 -39 15 -74 34 l-65 34 -84 -13 c-45 -8 -84 -15 -86 -17 -2
-2 -6 -21 -9 -43 -3 -22 -8 -49 -10 -60 -3 -11 -5 -28 -5 -37 -1 -10 -29 -44
-62 -77 l-61 -59 36 -76 c38 -79 41 -110 17 -202 -7 -26 -2 -44 33 -109 40
-75 44 -79 116 -117 44 -23 83 -37 95 -34 11 3 47 8 81 11 56 6 66 4 134 -30
l73 -37 63 63 c55 55 63 68 70 113 4 28 8 56 9 61 1 6 3 17 3 26 2 16 13 19
138 34 12 2 49 31 84 65 l62 61 -38 78 c-36 76 -39 78 -109 114 l-72 37 14 80
14 80 -39 72 c-25 48 -45 74 -58 76 -11 2 -22 1 -24 -1z m-97 -112 c15 -31 27
-58 27 -61 0 -9 -92 -96 -96 -91 -3 3 -18 30 -33 62 l-28 57 46 44 c25 24 48
44 51 44 3 0 18 -25 33 -55z m-130 -91 c15 -30 24 -54 22 -54 -3 0 -27 11 -53
25 -38 20 -53 36 -75 80 l-27 55 54 -27 c45 -22 57 -34 79 -79z m-109 -72 l-7
-66 -28 55 c-28 54 -29 71 -12 149 4 23 7 21 30 -23 22 -44 24 -56 17 -115z
m366 63 c-39 -38 -53 -45 -103 -53 l-58 -9 41 42 c35 36 52 45 99 53 31 5 58
10 61 11 3 0 -15 -19 -40 -44z m56 -16 c-3 -17 -6 -40 -6 -50 0 -11 -20 -40
-45 -66 -41 -42 -45 -44 -45 -22 1 53 20 102 52 133 42 43 52 44 44 5z m-474
-77 c30 -65 31 -64 -57 -76 l-50 -7 -28 57 c-16 31 -25 60 -20 65 8 7 50 14
103 17 21 1 29 -8 52 -56z m-178 -142 l-50 -50 -31 64 -32 64 51 48 51 48 31
-62 30 -62 -50 -50z m542 145 c-3 -8 -8 -37 -12 -64 -6 -49 -7 -50 -48 -56
-22 -3 -54 -9 -70 -12 -28 -5 -29 -4 -22 28 3 19 9 51 12 71 6 34 10 37 43 41
86 9 103 8 97 -8z m174 -57 l59 -33 -50 -47 -51 -47 -60 30 -61 31 49 49 c26
27 50 49 51 49 2 0 30 -15 63 -32z m-561 -74 c-39 -41 -55 -48 -122 -58 l-47
-7 41 42 c31 32 53 45 83 50 82 13 83 12 45 -27z m136 9 c30 -15 55 -30 55
-33 0 -4 -21 -26 -46 -50 l-46 -43 -59 28 c-32 16 -59 31 -59 34 0 8 83 91 92
91 4 0 32 -12 63 -27z m512 -156 l-51 -48 -30 60 -30 61 49 50 50 50 31 -62
32 -63 -51 -48z m-232 50 c15 -37 15 -37 -10 -37 -14 0 -28 -1 -32 -2 -79 -19
-79 -19 -109 43 -15 33 -26 60 -23 63 2 2 31 8 64 13 58 8 61 8 77 -17 9 -14
24 -42 33 -63z m121 -29 c13 -26 24 -50 24 -53 0 -3 -22 6 -50 20 -39 20 -55
36 -75 75 -14 27 -25 52 -25 55 0 4 23 -6 51 -21 39 -22 56 -39 75 -76z m-292
24 l28 -59 -46 -48 c-26 -26 -48 -46 -50 -44 -12 16 -56 104 -56 112 0 12 80
97 90 97 4 0 19 -26 34 -58z m-239 6 c25 -12 45 -26 45 -30 0 -4 -3 -7 -7 -6
-5 1 -29 -1 -55 -6 -40 -6 -54 -3 -100 20 l-53 28 30 7 c56 13 94 9 140 -13z
m71 -105 c-13 -86 -5 -80 -113 -98 -38 -6 -40 1 -22 84 11 54 11 54 98 59 l43
3 -6 -48z m340 -76 c-3 -18 -8 -49 -11 -69 l-6 -37 -60 31 -61 31 7 61 c3 33
9 64 11 68 3 4 32 -6 65 -22 57 -29 60 -32 55 -63z m-150 51 c-2 -13 -7 -39
-11 -59 -4 -24 -21 -51 -49 -78 l-43 -42 9 58 c8 48 17 66 51 101 23 23 43 42
44 42 2 0 2 -10 -1 -22z m-416 -73 c40 -20 55 -36 76 -76 14 -28 24 -53 22
-54 -2 -2 -25 8 -52 23 -37 21 -56 40 -77 80 -15 28 -25 52 -23 52 3 0 27 -11
54 -25z m247 -69 l32 -64 -56 -7 c-31 -4 -61 -9 -67 -11 -10 -4 -82 114 -74
121 2 2 30 8 63 13 33 5 62 10 65 11 3 0 20 -28 37 -63z m226 -2 c29 -15 54
-28 56 -30 3 -3 -17 -26 -43 -53 l-48 -49 -57 30 c-31 17 -58 33 -60 35 -6 5
81 93 91 93 5 0 32 -12 61 -26z"/>
</g>
</svg>
