<?xml version="1.0" encoding="UTF-8"?>
<svg xmlns="http://www.w3.org/2000/svg" xmlns:xlink="http://www.w3.org/1999/xlink" width="56pt" height="59pt" viewBox="0 0 56 59" version="1.1">
<defs>
<clipPath id="clip1">
  <path d="M 19 21 L 36 21 L 36 37 L 19 37 Z M 19 21 "/>
</clipPath>
<clipPath id="clip2">
  <path d="M 23.867188 15.664062 L 40.308594 24.332031 L 30.828125 42.011719 L 14.386719 33.34375 Z M 23.867188 15.664062 "/>
</clipPath>
<clipPath id="clip3">
  <path d="M 20 5 L 34 5 L 34 19 L 20 19 Z M 20 5 "/>
</clipPath>
<clipPath id="clip4">
  <path d="M 15.402344 0.726562 L 38.292969 0.332031 L 38.691406 23.027344 L 15.800781 23.421875 Z M 15.402344 0.726562 "/>
</clipPath>
<clipPath id="clip5">
  <path d="M 21 41 L 34 41 L 34 54 L 21 54 Z M 21 41 "/>
</clipPath>
<clipPath id="clip6">
  <path d="M 16.101562 36.125 L 38.992188 35.730469 L 39.390625 58.425781 L 16.5 58.820312 Z M 16.101562 36.125 "/>
</clipPath>
<clipPath id="clip7">
  <path d="M 5 15 L 18 15 L 18 28 L 5 28 Z M 5 15 "/>
</clipPath>
<clipPath id="clip8">
  <path d="M 0 10.097656 L 22.886719 9.703125 L 23.285156 32.355469 L 0.398438 32.75 Z M 0 10.097656 "/>
</clipPath>
<clipPath id="clip9">
  <path d="M 36 31 L 50 31 L 50 45 L 36 45 Z M 36 31 "/>
</clipPath>
<clipPath id="clip10">
  <path d="M 31.5 26.753906 L 54.394531 26.359375 L 54.792969 49.015625 L 31.898438 49.410156 Z M 31.5 26.753906 "/>
</clipPath>
<clipPath id="clip11">
  <path d="M 36 14 L 50 14 L 50 27 L 36 27 Z M 36 14 "/>
</clipPath>
<clipPath id="clip12">
  <path d="M 31.152344 9.402344 L 54.050781 9.003906 L 54.449219 31.652344 L 31.550781 32.050781 Z M 31.152344 9.402344 "/>
</clipPath>
<clipPath id="clip13">
  <path d="M 6 32 L 19 32 L 19 45 L 6 45 Z M 6 32 "/>
</clipPath>
<clipPath id="clip14">
  <path d="M 0.703125 27.101562 L 23.59375 26.707031 L 23.992188 49.355469 L 1.101562 49.75 Z M 0.703125 27.101562 "/>
</clipPath>
</defs>
<g id="surface1">
<g clip-path="url(#clip1)" clip-rule="nonzero">
<g clip-path="url(#clip2)" clip-rule="nonzero">
<path style=" stroke:none;fill-rule:nonzero;fill:rgb(0%,0%,0%);fill-opacity:1;" d="M 22.867188 21.910156 C 23.832031 21.300781 25.21875 21.597656 25.835938 22.554688 C 26.476562 23.542969 26.1875 24.863281 25.1875 25.5 C 24.535156 25.914062 23.703125 25.949219 23.019531 25.585938 C 22.695312 25.417969 22.417969 25.164062 22.21875 24.859375 C 21.578125 23.867188 21.871094 22.542969 22.867188 21.910156 Z M 21.25 31.109375 C 20.882812 31.117188 20.519531 31.03125 20.195312 30.863281 C 19.507812 30.5 19.070312 29.796875 19.050781 29.027344 C 19.039062 28.457031 19.25 27.917969 19.648438 27.503906 C 20.042969 27.09375 20.578125 26.859375 21.152344 26.847656 C 22.300781 26.820312 23.324219 27.796875 23.351562 28.929688 C 23.378906 30.105469 22.433594 31.082031 21.25 31.109375 Z M 23.453125 36.105469 C 22.40625 35.554688 22.007812 34.261719 22.5625 33.222656 C 23.121094 32.1875 24.425781 31.789062 25.472656 32.34375 C 26.519531 32.894531 26.917969 34.1875 26.359375 35.226562 C 25.804688 36.261719 24.5 36.65625 23.453125 36.105469 Z M 29.226562 25.335938 C 28.179688 24.785156 27.78125 23.492188 28.339844 22.453125 C 28.894531 21.414062 30.199219 21.019531 31.246094 21.570312 C 32.292969 22.125 32.691406 23.417969 32.136719 24.453125 C 31.578125 25.492188 30.273438 25.886719 29.226562 25.335938 Z M 31.832031 35.765625 C 31.179688 36.179688 30.347656 36.214844 29.660156 35.851562 C 29.335938 35.679688 29.058594 35.429688 28.859375 35.121094 C 28.550781 34.640625 28.449219 34.070312 28.570312 33.515625 C 28.691406 32.960938 29.027344 32.484375 29.511719 32.175781 C 30.472656 31.566406 31.859375 31.859375 32.480469 32.820312 C 33.121094 33.8125 32.832031 35.132812 31.832031 35.765625 Z M 35.054688 30.175781 C 34.65625 30.585938 34.121094 30.820312 33.546875 30.832031 C 33.179688 30.839844 32.816406 30.753906 32.492188 30.582031 C 31.804688 30.222656 31.367188 29.519531 31.351562 28.75 C 31.335938 28.179688 31.546875 27.640625 31.945312 27.230469 C 32.339844 26.816406 32.875 26.582031 33.449219 26.570312 C 34.601562 26.546875 35.621094 27.523438 35.648438 28.652344 C 35.660156 29.222656 35.449219 29.761719 35.054688 30.175781 Z M 35.054688 30.175781 "/>
</g>
</g>
<g clip-path="url(#clip3)" clip-rule="nonzero">
<g clip-path="url(#clip4)" clip-rule="nonzero">
<path style=" stroke:none;fill-rule:nonzero;fill:rgb(0%,0%,0%);fill-opacity:1;" d="M 26.9375 5.695312 C 23.5 5.753906 20.753906 8.574219 20.8125 11.984375 C 20.871094 15.394531 23.71875 18.117188 27.15625 18.058594 C 30.59375 17.996094 33.339844 15.175781 33.28125 11.769531 C 33.222656 8.359375 30.375 5.636719 26.9375 5.695312 Z M 27.105469 15.171875 C 25.273438 15.207031 23.753906 13.753906 23.722656 11.933594 C 23.6875 10.117188 25.15625 8.609375 26.988281 8.578125 C 28.820312 8.546875 30.339844 10.003906 30.371094 11.820312 C 30.40625 13.636719 28.9375 15.140625 27.105469 15.171875 Z M 27.105469 15.171875 "/>
</g>
</g>
<g clip-path="url(#clip5)" clip-rule="nonzero">
<g clip-path="url(#clip6)" clip-rule="nonzero">
<path style=" stroke:none;fill-rule:nonzero;fill:rgb(0%,0%,0%);fill-opacity:1;" d="M 27.636719 41.09375 C 24.199219 41.15625 21.453125 43.976562 21.511719 47.386719 C 21.574219 50.792969 24.417969 53.515625 27.855469 53.457031 C 31.292969 53.398438 34.042969 50.578125 33.980469 47.167969 C 33.921875 43.761719 31.078125 41.035156 27.636719 41.09375 Z M 27.804688 50.570312 C 25.972656 50.601562 24.453125 49.152344 24.421875 47.335938 C 24.390625 45.515625 25.859375 44.011719 27.6875 43.976562 C 29.519531 43.945312 31.039062 45.402344 31.070312 47.21875 C 31.105469 49.035156 29.636719 50.539062 27.804688 50.570312 Z M 27.804688 50.570312 "/>
</g>
</g>
<g clip-path="url(#clip7)" clip-rule="nonzero">
<g clip-path="url(#clip8)" clip-rule="nonzero">
<path style=" stroke:none;fill-rule:nonzero;fill:rgb(0%,0%,0%);fill-opacity:1;" d="M 8.6875 26.648438 C 9.628906 27.152344 10.6875 27.402344 11.75 27.382812 C 14 27.34375 16.066406 26.101562 17.132812 24.136719 C 18.765625 21.132812 17.628906 17.375 14.601562 15.757812 C 11.671875 14.191406 7.730469 15.375 6.15625 18.269531 C 4.523438 21.265625 5.660156 25.027344 8.6875 26.648438 Z M 8.71875 19.640625 C 9.289062 18.589844 10.390625 17.925781 11.59375 17.90625 C 12.160156 17.894531 12.722656 18.03125 13.222656 18.300781 C 14.835938 19.164062 15.441406 21.167969 14.574219 22.769531 C 14.003906 23.816406 12.90625 24.480469 11.703125 24.5 C 11.136719 24.511719 10.574219 24.375 10.074219 24.109375 C 8.453125 23.242188 7.847656 21.238281 8.71875 19.640625 Z M 8.71875 19.640625 "/>
</g>
</g>
<g clip-path="url(#clip9)" clip-rule="nonzero">
<g clip-path="url(#clip10)" clip-rule="nonzero">
<path style=" stroke:none;fill-rule:nonzero;fill:rgb(0%,0%,0%);fill-opacity:1;" d="M 46.105469 32.417969 C 43.167969 30.847656 39.230469 32.042969 37.660156 34.929688 C 36.875 36.386719 36.695312 38.050781 37.175781 39.632812 C 37.652344 41.21875 38.726562 42.523438 40.1875 43.308594 C 41.128906 43.808594 42.183594 44.066406 43.253906 44.046875 C 45.503906 44.007812 47.570312 42.761719 48.640625 40.796875 C 50.269531 37.792969 49.136719 34.039062 46.105469 32.417969 Z M 46.074219 39.425781 C 45.238281 40.96875 43.136719 41.605469 41.570312 40.765625 C 40.789062 40.347656 40.21875 39.648438 39.960938 38.808594 C 39.703125 37.964844 39.796875 37.070312 40.21875 36.296875 C 40.789062 35.246094 41.886719 34.582031 43.097656 34.558594 C 43.65625 34.550781 44.222656 34.6875 44.726562 34.953125 C 46.339844 35.820312 46.945312 37.824219 46.074219 39.425781 Z M 46.074219 39.425781 "/>
</g>
</g>
<g clip-path="url(#clip11)" clip-rule="nonzero">
<g clip-path="url(#clip12)" clip-rule="nonzero">
<path style=" stroke:none;fill-rule:nonzero;fill:rgb(0%,0%,0%);fill-opacity:1;" d="M 39.65625 15.167969 C 38.21875 16 37.195312 17.339844 36.769531 18.933594 C 36.34375 20.535156 36.578125 22.195312 37.414062 23.621094 C 38.550781 25.550781 40.660156 26.722656 42.914062 26.683594 C 43.976562 26.667969 45.027344 26.375 45.945312 25.839844 C 47.382812 25.011719 48.40625 23.671875 48.835938 22.074219 C 49.253906 20.476562 49.023438 18.808594 48.1875 17.386719 C 46.515625 14.550781 42.535156 13.503906 39.65625 15.167969 Z M 46.015625 21.34375 C 45.792969 22.191406 45.246094 22.90625 44.476562 23.351562 C 43.984375 23.636719 43.425781 23.792969 42.863281 23.804688 C 41.65625 23.824219 40.535156 23.199219 39.925781 22.171875 C 39.480469 21.410156 39.355469 20.519531 39.582031 19.667969 C 39.804688 18.816406 40.351562 18.101562 41.117188 17.660156 C 41.609375 17.375 42.167969 17.21875 42.734375 17.207031 C 43.941406 17.1875 45.066406 17.816406 45.671875 18.839844 C 46.121094 19.601562 46.246094 20.488281 46.015625 21.34375 Z M 46.015625 21.34375 "/>
</g>
</g>
<g clip-path="url(#clip13)" clip-rule="nonzero">
<g clip-path="url(#clip14)" clip-rule="nonzero">
<path style=" stroke:none;fill-rule:nonzero;fill:rgb(0%,0%,0%);fill-opacity:1;" d="M 9.199219 32.867188 C 7.765625 33.699219 6.742188 35.039062 6.320312 36.636719 C 5.894531 38.234375 6.125 39.898438 6.964844 41.324219 C 8.101562 43.253906 10.207031 44.425781 12.46875 44.386719 C 13.527344 44.367188 14.574219 44.078125 15.5 43.546875 C 18.464844 41.828125 19.464844 38.03125 17.730469 35.089844 C 16.058594 32.253906 12.082031 31.203125 9.199219 32.867188 Z M 14.027344 41.054688 C 13.535156 41.339844 12.976562 41.492188 12.414062 41.5 C 11.210938 41.523438 10.082031 40.894531 9.472656 39.871094 C 9.027344 39.109375 8.902344 38.222656 9.125 37.367188 C 9.351562 36.515625 9.894531 35.800781 10.664062 35.359375 C 11.15625 35.074219 11.710938 34.917969 12.277344 34.90625 C 13.484375 34.886719 14.605469 35.515625 15.214844 36.542969 C 16.144531 38.113281 15.609375 40.136719 14.027344 41.054688 Z M 14.027344 41.054688 "/>
</g>
</g>
</g>
</svg>
