<?xml version="1.0" encoding="UTF-8"?>
<svg xmlns="http://www.w3.org/2000/svg" xmlns:xlink="http://www.w3.org/1999/xlink" width="117pt" height="60pt" viewBox="0 0 117 60" version="1.1">
<defs>
<clipPath id="clip1">
  <path d="M 50 16 L 63 16 L 63 28 L 50 28 Z M 50 16 "/>
</clipPath>
<clipPath id="clip2">
  <path d="M 54.03125 11.769531 L 66.523438 18.429688 L 59.320312 32.015625 L 46.828125 25.355469 Z M 54.03125 11.769531 "/>
</clipPath>
<clipPath id="clip3">
  <path d="M 51 4 L 62 4 L 62 14 L 51 14 Z M 51 4 "/>
</clipPath>
<clipPath id="clip4">
  <path d="M 47.597656 0.292969 L 64.988281 -0.0117188 L 65.292969 17.425781 L 47.902344 17.730469 Z M 47.597656 0.292969 "/>
</clipPath>
<clipPath id="clip5">
  <path d="M 52 31 L 62 31 L 62 41 L 52 41 Z M 52 31 "/>
</clipPath>
<clipPath id="clip6">
  <path d="M 48.132812 27.492188 L 65.523438 27.1875 L 65.828125 44.625 L 48.4375 44.929688 Z M 48.132812 27.492188 "/>
</clipPath>
<clipPath id="clip7">
  <path d="M 40 11 L 50 11 L 50 21 L 40 21 Z M 40 11 "/>
</clipPath>
<clipPath id="clip8">
  <path d="M 35.898438 7.492188 L 53.285156 7.1875 L 53.589844 24.59375 L 36.203125 24.898438 Z M 35.898438 7.492188 "/>
</clipPath>
<clipPath id="clip9">
  <path d="M 63 24 L 74 24 L 74 34 L 63 34 Z M 63 24 "/>
</clipPath>
<clipPath id="clip10">
  <path d="M 59.832031 20.292969 L 77.226562 19.988281 L 77.53125 37.394531 L 60.136719 37.699219 Z M 59.832031 20.292969 "/>
</clipPath>
<clipPath id="clip11">
  <path d="M 63 10 L 74 10 L 74 21 L 63 21 Z M 63 10 "/>
</clipPath>
<clipPath id="clip12">
  <path d="M 59.566406 6.957031 L 76.964844 6.652344 L 77.269531 24.054688 L 59.871094 24.359375 Z M 59.566406 6.957031 "/>
</clipPath>
<clipPath id="clip13">
  <path d="M 40 24 L 51 24 L 51 34 L 40 34 Z M 40 24 "/>
</clipPath>
<clipPath id="clip14">
  <path d="M 36.429688 20.558594 L 53.820312 20.253906 L 54.125 37.65625 L 36.734375 37.960938 Z M 36.429688 20.558594 "/>
</clipPath>
</defs>
<g id="surface1">
<g clip-path="url(#clip1)" clip-rule="nonzero">
<g clip-path="url(#clip2)" clip-rule="nonzero">
<path style=" stroke:none;fill-rule:nonzero;fill:rgb(0%,0%,0%);fill-opacity:1;" d="M 53.269531 16.570312 C 54.003906 16.101562 55.058594 16.328125 55.527344 17.0625 C 56.011719 17.824219 55.792969 18.839844 55.035156 19.324219 C 54.539062 19.644531 53.90625 19.671875 53.386719 19.394531 C 53.140625 19.261719 52.929688 19.070312 52.777344 18.832031 C 52.292969 18.070312 52.511719 17.054688 53.269531 16.570312 Z M 52.042969 23.636719 C 51.761719 23.644531 51.488281 23.578125 51.242188 23.445312 C 50.71875 23.167969 50.386719 22.628906 50.371094 22.035156 C 50.363281 21.597656 50.523438 21.183594 50.824219 20.867188 C 51.125 20.550781 51.53125 20.371094 51.96875 20.359375 C 52.839844 20.34375 53.617188 21.09375 53.636719 21.960938 C 53.660156 22.863281 52.941406 23.617188 52.042969 23.636719 Z M 53.714844 27.476562 C 52.921875 27.050781 52.617188 26.058594 53.039062 25.261719 C 53.464844 24.464844 54.453125 24.160156 55.25 24.582031 C 56.042969 25.007812 56.347656 26 55.925781 26.800781 C 55.503906 27.597656 54.511719 27.898438 53.714844 27.476562 Z M 58.101562 19.199219 C 57.308594 18.777344 57.003906 17.78125 57.425781 16.984375 C 57.851562 16.1875 58.839844 15.886719 59.636719 16.308594 C 60.429688 16.734375 60.734375 17.726562 60.3125 18.523438 C 59.890625 19.320312 58.898438 19.625 58.101562 19.199219 Z M 60.082031 27.214844 C 59.585938 27.535156 58.953125 27.558594 58.433594 27.28125 C 58.183594 27.148438 57.976562 26.957031 57.824219 26.71875 C 57.589844 26.351562 57.511719 25.914062 57.605469 25.484375 C 57.695312 25.058594 57.953125 24.695312 58.316406 24.457031 C 59.046875 23.988281 60.101562 24.214844 60.574219 24.949219 C 61.0625 25.710938 60.839844 26.726562 60.082031 27.214844 Z M 62.53125 22.917969 C 62.226562 23.234375 61.820312 23.414062 61.386719 23.421875 C 61.105469 23.429688 60.828125 23.363281 60.582031 23.234375 C 60.0625 22.957031 59.730469 22.414062 59.714844 21.824219 C 59.707031 21.386719 59.867188 20.96875 60.167969 20.65625 C 60.46875 20.339844 60.875 20.160156 61.3125 20.148438 C 62.183594 20.132812 62.960938 20.878906 62.980469 21.75 C 62.992188 22.1875 62.828125 22.601562 62.53125 22.917969 Z M 62.53125 22.917969 "/>
</g>
</g>
<g clip-path="url(#clip3)" clip-rule="nonzero">
<g clip-path="url(#clip4)" clip-rule="nonzero">
<path style=" stroke:none;fill-rule:nonzero;fill:rgb(0%,0%,0%);fill-opacity:1;" d="M 56.363281 4.109375 C 53.753906 4.15625 51.664062 6.320312 51.710938 8.941406 C 51.753906 11.5625 53.917969 13.652344 56.527344 13.609375 C 59.140625 13.5625 61.230469 11.394531 61.183594 8.777344 C 61.136719 6.15625 58.976562 4.0625 56.363281 4.109375 Z M 56.488281 11.390625 C 55.097656 11.417969 53.945312 10.300781 53.917969 8.902344 C 53.894531 7.507812 55.011719 6.351562 56.402344 6.324219 C 57.792969 6.300781 58.949219 7.417969 58.972656 8.816406 C 58.996094 10.210938 57.882812 11.367188 56.488281 11.390625 Z M 56.488281 11.390625 "/>
</g>
</g>
<g clip-path="url(#clip5)" clip-rule="nonzero">
<g clip-path="url(#clip6)" clip-rule="nonzero">
<path style=" stroke:none;fill-rule:nonzero;fill:rgb(0%,0%,0%);fill-opacity:1;" d="M 56.894531 31.308594 C 54.285156 31.355469 52.195312 33.523438 52.242188 36.140625 C 52.289062 38.761719 54.449219 40.851562 57.058594 40.808594 C 59.671875 40.761719 61.761719 38.59375 61.714844 35.976562 C 61.671875 33.359375 59.507812 31.261719 56.894531 31.308594 Z M 57.023438 38.589844 C 55.628906 38.613281 54.476562 37.5 54.453125 36.101562 C 54.425781 34.707031 55.542969 33.550781 56.933594 33.523438 C 58.324219 33.5 59.480469 34.617188 59.503906 36.015625 C 59.527344 37.410156 58.414062 38.566406 57.023438 38.589844 Z M 57.023438 38.589844 "/>
</g>
</g>
<g clip-path="url(#clip7)" clip-rule="nonzero">
<g clip-path="url(#clip8)" clip-rule="nonzero">
<path style=" stroke:none;fill-rule:nonzero;fill:rgb(0%,0%,0%);fill-opacity:1;" d="M 42.5 20.207031 C 43.214844 20.59375 44.019531 20.789062 44.824219 20.773438 C 46.535156 20.742188 48.101562 19.789062 48.914062 18.277344 C 50.152344 15.972656 49.289062 13.085938 46.992188 11.84375 C 44.765625 10.636719 41.769531 11.546875 40.574219 13.769531 C 39.335938 16.074219 40.199219 18.964844 42.5 20.207031 Z M 42.519531 14.824219 C 42.957031 14.019531 43.792969 13.507812 44.707031 13.492188 C 45.136719 13.484375 45.5625 13.589844 45.945312 13.796875 C 47.171875 14.457031 47.628906 15.996094 46.96875 17.226562 C 46.539062 18.035156 45.703125 18.542969 44.789062 18.558594 C 44.359375 18.566406 43.929688 18.460938 43.550781 18.257812 C 42.320312 17.589844 41.859375 16.050781 42.519531 14.824219 Z M 42.519531 14.824219 "/>
</g>
</g>
<g clip-path="url(#clip9)" clip-rule="nonzero">
<g clip-path="url(#clip10)" clip-rule="nonzero">
<path style=" stroke:none;fill-rule:nonzero;fill:rgb(0%,0%,0%);fill-opacity:1;" d="M 70.925781 24.640625 C 68.695312 23.433594 65.703125 24.351562 64.511719 26.570312 C 63.914062 27.691406 63.777344 28.96875 64.140625 30.1875 C 64.503906 31.40625 65.320312 32.40625 66.429688 33.007812 C 67.144531 33.394531 67.949219 33.589844 68.757812 33.578125 C 70.46875 33.546875 72.039062 32.589844 72.851562 31.078125 C 74.089844 28.773438 73.230469 25.886719 70.925781 24.640625 Z M 70.902344 30.027344 C 70.265625 31.214844 68.671875 31.703125 67.480469 31.054688 C 66.886719 30.734375 66.453125 30.199219 66.257812 29.550781 C 66.0625 28.902344 66.132812 28.214844 66.453125 27.621094 C 66.886719 26.816406 67.722656 26.304688 68.640625 26.289062 C 69.066406 26.28125 69.496094 26.386719 69.878906 26.589844 C 71.105469 27.253906 71.5625 28.796875 70.902344 30.027344 Z M 70.902344 30.027344 "/>
</g>
</g>
<g clip-path="url(#clip11)" clip-rule="nonzero">
<g clip-path="url(#clip12)" clip-rule="nonzero">
<path style=" stroke:none;fill-rule:nonzero;fill:rgb(0%,0%,0%);fill-opacity:1;" d="M 66.023438 11.386719 C 64.933594 12.027344 64.15625 13.058594 63.832031 14.28125 C 63.507812 15.511719 63.6875 16.789062 64.324219 17.882812 C 65.1875 19.367188 66.789062 20.265625 68.5 20.238281 C 69.308594 20.222656 70.105469 20 70.804688 19.589844 C 71.898438 18.949219 72.671875 17.921875 73 16.695312 C 73.320312 15.464844 73.144531 14.1875 72.507812 13.09375 C 71.238281 10.914062 68.210938 10.109375 66.023438 11.386719 Z M 70.859375 16.132812 C 70.6875 16.785156 70.273438 17.335938 69.691406 17.675781 C 69.316406 17.894531 68.890625 18.015625 68.460938 18.023438 C 67.546875 18.039062 66.695312 17.558594 66.230469 16.769531 C 65.894531 16.183594 65.796875 15.5 65.96875 14.84375 C 66.140625 14.191406 66.554688 13.644531 67.136719 13.300781 C 67.507812 13.082031 67.933594 12.964844 68.367188 12.957031 C 69.28125 12.9375 70.136719 13.421875 70.59375 14.207031 C 70.9375 14.796875 71.03125 15.476562 70.859375 16.132812 Z M 70.859375 16.132812 "/>
</g>
</g>
<g clip-path="url(#clip13)" clip-rule="nonzero">
<g clip-path="url(#clip14)" clip-rule="nonzero">
<path style=" stroke:none;fill-rule:nonzero;fill:rgb(0%,0%,0%);fill-opacity:1;" d="M 42.886719 24.988281 C 41.796875 25.628906 41.019531 26.65625 40.699219 27.882812 C 40.375 29.113281 40.550781 30.390625 41.191406 31.488281 C 42.054688 32.96875 43.652344 33.867188 45.371094 33.839844 C 46.175781 33.824219 46.96875 33.601562 47.671875 33.195312 C 49.925781 31.871094 50.6875 28.953125 49.371094 26.695312 C 48.097656 24.515625 45.078125 23.707031 42.886719 24.988281 Z M 46.554688 31.277344 C 46.179688 31.496094 45.753906 31.613281 45.328125 31.621094 C 44.414062 31.636719 43.558594 31.15625 43.09375 30.367188 C 42.753906 29.785156 42.660156 29.101562 42.832031 28.445312 C 43 27.789062 43.414062 27.238281 44 26.902344 C 44.371094 26.683594 44.796875 26.5625 45.222656 26.554688 C 46.140625 26.539062 46.996094 27.023438 47.457031 27.8125 C 48.164062 29.019531 47.753906 30.574219 46.554688 31.277344 Z M 46.554688 31.277344 "/>
</g>
</g>
<path style=" stroke:none;fill-rule:nonzero;fill:rgb(0%,0%,0%);fill-opacity:1;" d="M 5.425781 58.382812 C 4.507812 58.382812 3.625 58.238281 2.785156 57.945312 C 1.941406 57.65625 1.289062 57.273438 0.832031 56.796875 L 1.34375 55.804688 C 1.792969 56.246094 2.386719 56.601562 3.128906 56.875 C 3.871094 57.148438 4.636719 57.285156 5.425781 57.285156 C 6.535156 57.285156 7.367188 57.082031 7.917969 56.683594 C 8.472656 56.28125 8.75 55.761719 8.75 55.125 C 8.75 54.636719 8.601562 54.246094 8.300781 53.957031 C 8 53.667969 7.628906 53.441406 7.195312 53.285156 C 6.757812 53.128906 6.152344 52.957031 5.375 52.773438 C 4.441406 52.539062 3.699219 52.316406 3.148438 52.101562 C 2.59375 51.886719 2.117188 51.558594 1.722656 51.117188 C 1.328125 50.675781 1.132812 50.078125 1.132812 49.324219 C 1.132812 48.707031 1.296875 48.148438 1.625 47.640625 C 1.957031 47.136719 2.464844 46.734375 3.148438 46.429688 C 3.832031 46.128906 4.679688 45.976562 5.691406 45.976562 C 6.398438 45.976562 7.089844 46.074219 7.769531 46.265625 C 8.445312 46.457031 9.035156 46.722656 9.527344 47.058594 L 9.085938 48.085938 C 8.566406 47.75 8.015625 47.496094 7.425781 47.328125 C 6.835938 47.160156 6.257812 47.074219 5.691406 47.074219 C 4.609375 47.074219 3.792969 47.28125 3.242188 47.695312 C 2.695312 48.105469 2.421875 48.636719 2.421875 49.289062 C 2.421875 49.777344 2.570312 50.167969 2.871094 50.464844 C 3.171875 50.761719 3.550781 50.988281 4.003906 51.144531 C 4.457031 51.300781 5.066406 51.472656 5.832031 51.65625 C 6.742188 51.878906 7.476562 52.09375 8.035156 52.308594 C 8.59375 52.523438 9.070312 52.851562 9.457031 53.285156 C 9.847656 53.722656 10.039062 54.3125 10.039062 55.054688 C 10.039062 55.671875 9.871094 56.230469 9.535156 56.734375 C 9.203125 57.242188 8.6875 57.640625 7.992188 57.9375 C 7.296875 58.234375 6.441406 58.382812 5.425781 58.382812 Z M 16.476562 58.363281 C 15.554688 58.363281 14.734375 58.167969 14.007812 57.773438 C 13.285156 57.378906 12.714844 56.824219 12.304688 56.109375 C 11.890625 55.394531 11.683594 54.589844 11.683594 53.695312 C 11.683594 52.800781 11.890625 52 12.304688 51.292969 C 12.714844 50.582031 13.285156 50.03125 14.007812 49.636719 C 14.734375 49.242188 15.554688 49.042969 16.476562 49.042969 C 17.277344 49.042969 17.992188 49.199219 18.625 49.503906 C 19.253906 49.8125 19.75 50.261719 20.117188 50.855469 L 19.179688 51.484375 C 18.875 51.03125 18.484375 50.691406 18.011719 50.464844 C 17.542969 50.238281 17.03125 50.125 16.476562 50.125 C 15.804688 50.125 15.199219 50.273438 14.664062 50.570312 C 14.128906 50.863281 13.710938 51.285156 13.410156 51.832031 C 13.109375 52.378906 12.957031 53 12.957031 53.695312 C 12.957031 54.402344 13.109375 55.027344 13.410156 55.566406 C 13.710938 56.109375 14.128906 56.527344 14.664062 56.824219 C 15.199219 57.117188 15.804688 57.265625 16.476562 57.265625 C 17.03125 57.265625 17.542969 57.15625 18.011719 56.9375 C 18.484375 56.714844 18.875 56.378906 19.179688 55.925781 L 20.117188 56.550781 C 19.75 57.144531 19.25 57.59375 18.613281 57.902344 C 17.976562 58.210938 17.265625 58.363281 16.476562 58.363281 Z M 22.574219 58.277344 L 22.574219 49.113281 L 23.828125 49.113281 L 23.828125 58.277344 Z M 23.210938 47.109375 C 22.953125 47.109375 22.734375 47.023438 22.558594 46.847656 C 22.378906 46.675781 22.292969 46.464844 22.292969 46.222656 C 22.292969 45.988281 22.378906 45.785156 22.558594 45.613281 C 22.734375 45.4375 22.953125 45.351562 23.210938 45.351562 C 23.46875 45.351562 23.6875 45.433594 23.863281 45.601562 C 24.042969 45.773438 24.128906 45.972656 24.128906 46.203125 C 24.128906 46.460938 24.042969 46.675781 23.863281 46.847656 C 23.6875 47.023438 23.46875 47.109375 23.210938 47.109375 Z M 35.445312 53.695312 L 35.425781 54.078125 L 27.648438 54.078125 C 27.71875 55.03125 28.089844 55.800781 28.761719 56.386719 C 29.433594 56.972656 30.28125 57.265625 31.308594 57.265625 C 31.882812 57.265625 32.414062 57.164062 32.898438 56.960938 C 33.382812 56.757812 33.800781 56.460938 34.152344 56.066406 L 34.859375 56.867188 C 34.449219 57.355469 33.933594 57.726562 33.3125 57.980469 C 32.695312 58.238281 32.015625 58.363281 31.273438 58.363281 C 30.316406 58.363281 29.472656 58.164062 28.734375 57.761719 C 28 57.363281 27.425781 56.808594 27.011719 56.101562 C 26.597656 55.390625 26.394531 54.589844 26.394531 53.695312 C 26.394531 52.800781 26.589844 52 26.984375 51.292969 C 27.378906 50.582031 27.921875 50.03125 28.609375 49.636719 C 29.300781 49.242188 30.074219 49.042969 30.9375 49.042969 C 31.796875 49.042969 32.566406 49.242188 33.25 49.636719 C 33.933594 50.03125 34.472656 50.578125 34.859375 51.28125 C 35.25 51.984375 35.445312 52.789062 35.445312 53.695312 Z M 30.9375 50.105469 C 30.039062 50.105469 29.289062 50.386719 28.683594 50.953125 C 28.074219 51.515625 27.730469 52.25 27.648438 53.15625 L 34.242188 53.15625 C 34.160156 52.25 33.8125 51.515625 33.207031 50.953125 C 32.601562 50.386719 31.84375 50.105469 30.9375 50.105469 Z M 42.746094 49.042969 C 43.910156 49.042969 44.839844 49.378906 45.527344 50.046875 C 46.21875 50.714844 46.5625 51.6875 46.5625 52.964844 L 46.5625 58.277344 L 45.308594 58.277344 L 45.308594 53.085938 C 45.308594 52.132812 45.066406 51.40625 44.582031 50.90625 C 44.101562 50.410156 43.410156 50.160156 42.515625 50.160156 C 41.511719 50.160156 40.71875 50.453125 40.136719 51.039062 C 39.554688 51.625 39.261719 52.433594 39.261719 53.46875 L 39.261719 58.277344 L 38.007812 58.277344 L 38.007812 49.113281 L 39.210938 49.113281 L 39.210938 50.804688 C 39.550781 50.246094 40.023438 49.8125 40.632812 49.503906 C 41.238281 49.199219 41.941406 49.042969 42.746094 49.042969 Z M 53.863281 58.363281 C 52.945312 58.363281 52.121094 58.167969 51.398438 57.773438 C 50.671875 57.378906 50.105469 56.824219 49.691406 56.109375 C 49.28125 55.394531 49.074219 54.589844 49.074219 53.695312 C 49.074219 52.800781 49.28125 52 49.691406 51.292969 C 50.105469 50.582031 50.671875 50.03125 51.398438 49.636719 C 52.121094 49.242188 52.945312 49.042969 53.863281 49.042969 C 54.664062 49.042969 55.382812 49.199219 56.011719 49.503906 C 56.640625 49.8125 57.140625 50.261719 57.503906 50.855469 L 56.570312 51.484375 C 56.261719 51.03125 55.875 50.691406 55.402344 50.464844 C 54.929688 50.238281 54.417969 50.125 53.863281 50.125 C 53.191406 50.125 52.589844 50.273438 52.050781 50.570312 C 51.515625 50.863281 51.097656 51.285156 50.796875 51.832031 C 50.496094 52.378906 50.347656 53 50.347656 53.695312 C 50.347656 54.402344 50.496094 55.027344 50.796875 55.566406 C 51.097656 56.109375 51.515625 56.527344 52.050781 56.824219 C 52.589844 57.117188 53.191406 57.265625 53.863281 57.265625 C 54.417969 57.265625 54.929688 57.15625 55.402344 56.9375 C 55.875 56.714844 56.261719 56.378906 56.570312 55.925781 L 57.503906 56.550781 C 57.140625 57.144531 56.640625 57.59375 56.003906 57.902344 C 55.367188 58.210938 54.652344 58.363281 53.863281 58.363281 Z M 67.917969 53.695312 L 67.898438 54.078125 L 60.121094 54.078125 C 60.191406 55.03125 60.5625 55.800781 61.234375 56.386719 C 61.90625 56.972656 62.753906 57.265625 63.78125 57.265625 C 64.359375 57.265625 64.890625 57.164062 65.371094 56.960938 C 65.855469 56.757812 66.273438 56.460938 66.628906 56.066406 L 67.335938 56.867188 C 66.921875 57.355469 66.40625 57.726562 65.789062 57.980469 C 65.167969 58.238281 64.488281 58.363281 63.746094 58.363281 C 62.789062 58.363281 61.945312 58.164062 61.207031 57.761719 C 60.472656 57.363281 59.898438 56.808594 59.484375 56.101562 C 59.074219 55.390625 58.867188 54.589844 58.867188 53.695312 C 58.867188 52.800781 59.0625 52 59.457031 51.292969 C 59.855469 50.582031 60.394531 50.03125 61.085938 49.636719 C 61.773438 49.242188 62.550781 49.042969 63.410156 49.042969 C 64.269531 49.042969 65.042969 49.242188 65.726562 49.636719 C 66.410156 50.03125 66.945312 50.578125 67.335938 51.28125 C 67.722656 51.984375 67.917969 52.789062 67.917969 53.695312 Z M 63.410156 50.105469 C 62.515625 50.105469 61.761719 50.386719 61.15625 50.953125 C 60.550781 51.515625 60.203125 52.25 60.121094 53.15625 L 66.714844 53.15625 C 66.632812 52.25 66.289062 51.515625 65.679688 50.953125 C 65.074219 50.386719 64.316406 50.105469 63.410156 50.105469 Z M 82.519531 46.082031 L 83.597656 46.082031 L 83.597656 58.277344 L 82.34375 58.277344 L 82.34375 48.519531 L 77.480469 56.726562 L 76.863281 56.726562 L 72 48.574219 L 72 58.277344 L 70.746094 58.277344 L 70.746094 46.082031 L 71.824219 46.082031 L 77.199219 55.125 Z M 95.476562 53.695312 L 95.460938 54.078125 L 87.679688 54.078125 C 87.75 55.03125 88.121094 55.800781 88.792969 56.386719 C 89.464844 56.972656 90.316406 57.265625 91.339844 57.265625 C 91.917969 57.265625 92.449219 57.164062 92.929688 56.960938 C 93.414062 56.757812 93.832031 56.460938 94.1875 56.066406 L 94.894531 56.867188 C 94.480469 57.355469 93.964844 57.726562 93.347656 57.980469 C 92.726562 58.238281 92.046875 58.363281 91.304688 58.363281 C 90.351562 58.363281 89.503906 58.164062 88.769531 57.761719 C 88.03125 57.363281 87.457031 56.808594 87.042969 56.101562 C 86.632812 55.390625 86.425781 54.589844 86.425781 53.695312 C 86.425781 52.800781 86.625 52 87.019531 51.292969 C 87.414062 50.582031 87.957031 50.03125 88.644531 49.636719 C 89.332031 49.242188 90.109375 49.042969 90.96875 49.042969 C 91.828125 49.042969 92.601562 49.242188 93.285156 49.636719 C 93.96875 50.03125 94.503906 50.578125 94.894531 51.28125 C 95.28125 51.984375 95.476562 52.789062 95.476562 53.695312 Z M 90.96875 50.105469 C 90.074219 50.105469 89.320312 50.386719 88.714844 50.953125 C 88.109375 51.515625 87.761719 52.25 87.679688 53.15625 L 94.273438 53.15625 C 94.191406 52.25 93.847656 51.515625 93.242188 50.953125 C 92.632812 50.386719 91.875 50.105469 90.96875 50.105469 Z M 100.53125 58.363281 C 99.777344 58.363281 99.054688 58.257812 98.367188 58.042969 C 97.679688 57.828125 97.136719 57.558594 96.75 57.230469 L 97.316406 56.257812 C 97.703125 56.558594 98.195312 56.804688 98.78125 56.996094 C 99.371094 57.1875 99.984375 57.285156 100.621094 57.285156 C 101.46875 57.285156 102.097656 57.152344 102.503906 56.890625 C 102.910156 56.632812 103.113281 56.261719 103.113281 55.785156 C 103.113281 55.449219 103 55.183594 102.777344 54.992188 C 102.554688 54.800781 102.269531 54.65625 101.929688 54.558594 C 101.585938 54.460938 101.132812 54.363281 100.566406 54.269531 C 99.8125 54.132812 99.207031 53.988281 98.746094 53.84375 C 98.289062 53.699219 97.894531 53.453125 97.570312 53.101562 C 97.246094 52.753906 97.085938 52.273438 97.085938 51.65625 C 97.085938 50.890625 97.410156 50.261719 98.058594 49.777344 C 98.707031 49.289062 99.609375 49.042969 100.761719 49.042969 C 101.363281 49.042969 101.964844 49.121094 102.566406 49.277344 C 103.167969 49.4375 103.660156 49.640625 104.050781 49.898438 L 103.503906 50.890625 C 102.738281 50.367188 101.824219 50.105469 100.761719 50.105469 C 99.960938 50.105469 99.355469 50.246094 98.949219 50.523438 C 98.542969 50.804688 98.339844 51.167969 98.339844 51.621094 C 98.339844 51.972656 98.457031 52.25 98.683594 52.457031 C 98.914062 52.667969 99.199219 52.820312 99.542969 52.921875 C 99.882812 53.019531 100.355469 53.121094 100.957031 53.226562 C 101.699219 53.363281 102.292969 53.503906 102.742188 53.644531 C 103.191406 53.78125 103.574219 54.019531 103.890625 54.359375 C 104.210938 54.695312 104.367188 55.160156 104.367188 55.75 C 104.367188 56.550781 104.03125 57.1875 103.351562 57.660156 C 102.675781 58.128906 101.734375 58.363281 100.53125 58.363281 Z M 111.421875 49.042969 C 112.589844 49.042969 113.515625 49.378906 114.207031 50.046875 C 114.894531 50.714844 115.242188 51.6875 115.242188 52.964844 L 115.242188 58.277344 L 113.984375 58.277344 L 113.984375 53.085938 C 113.984375 52.132812 113.742188 51.40625 113.261719 50.90625 C 112.777344 50.410156 112.089844 50.160156 111.191406 50.160156 C 110.191406 50.160156 109.398438 50.453125 108.816406 51.039062 C 108.230469 51.625 107.941406 52.433594 107.941406 53.46875 L 107.941406 58.277344 L 106.683594 58.277344 L 106.683594 45.351562 L 107.941406 45.351562 L 107.941406 50.714844 C 108.28125 50.183594 108.753906 49.769531 109.355469 49.480469 C 109.953125 49.1875 110.644531 49.042969 111.421875 49.042969 Z M 111.421875 49.042969 "/>
</g>
</svg>
